<svg width="28" height="28" fill="none" xmlns="http://www.w3.org/2000/svg"><path opacity=".4" d="M19.434.666h4.515c1.87 0 3.384 1.528 3.384 3.414v4.552c0 1.886-1.515 3.414-3.384 3.414h-4.515c-1.87 0-3.385-1.528-3.385-3.414V4.08c0-1.886 1.515-3.414 3.385-3.414z" fill="#716FE7"/><path fill-rule="evenodd" clip-rule="evenodd" d="M4.051.666h4.515c1.87 0 3.384 1.528 3.384 3.414v4.552c0 1.886-1.514 3.414-3.384 3.414H4.05c-1.87 0-3.384-1.528-3.384-3.414V4.08C.667 2.194 2.182.666 4.05.666zm0 15.288h4.515c1.87 0 3.384 1.527 3.384 3.413v4.553c0 1.884-1.514 3.413-3.384 3.413H4.05c-1.87 0-3.384-1.53-3.384-3.413v-4.553c0-1.886 1.515-3.413 3.384-3.413zm19.898 0h-4.515c-1.87 0-3.385 1.527-3.385 3.413v4.553c0 1.884 1.515 3.413 3.385 3.413h4.514c1.87 0 3.385-1.53 3.385-3.413v-4.553c0-1.886-1.515-3.413-3.384-3.413z" fill="#716FE7"/></svg>