<svg width="28" height="28" fill="none" xmlns="http://www.w3.org/2000/svg"><path opacity=".4" d="M20.219 27.32H7.779a7.124 7.124 0 01-5.247-1.852A7.128 7.128 0 01.68 20.22V7.78a7.126 7.126 0 011.85-5.248A7.129 7.129 0 017.78.68h12.439a7.117 7.117 0 015.244 1.85 7.162 7.162 0 011.857 5.25v12.44a7.133 7.133 0 01-1.852 5.248 7.13 7.13 0 01-5.249 1.851" fill="#716FE7"/><path d="M20.74 11.863l-8.738 8.78a2.399 2.399 0 01-1.675.69h-3.05a.617.617 0 01-.442-.182.608.608 0 01-.168-.442l.077-3.083c.013-.612.26-1.184.688-1.613l6.193-6.205a.282.282 0 01.39 0l2.171 2.163a.82.82 0 00.572.234c.48 0 .856-.39.856-.858a.882.882 0 00-.233-.599 322.283 322.283 0 00-2.107-2.11.346.346 0 010-.482l.87-.885a2.05 2.05 0 012.908 0l1.687 1.691a2.068 2.068 0 010 2.901" fill="#716FE7"/></svg>